<svg xmlns="http://www.w3.org/2000/svg" width="800" height="500" viewBox="0 0 800 500">
  <defs>
    <linearGradient id="bg" x1="0%" y1="0%" x2="100%" y2="100%">
      <stop offset="0%" style="stop-color:#121c2a"/>
      <stop offset="100%" style="stop-color:#16202e"/>
    </linearGradient>
    <radialGradient id="glow" cx="30%" cy="40%" r="50%">
      <stop offset="0%" style="stop-color:#b4c5ff;stop-opacity:0.1"/>
      <stop offset="100%" style="stop-color:#091421;stop-opacity:0"/>
    </radialGradient>
    <filter id="blur"><feGaussianBlur stdDeviation="25"/></filter>
  </defs>

  <rect width="800" height="500" fill="url(#bg)" rx="12"/>
  <ellipse cx="250" cy="200" rx="280" ry="200" fill="url(#glow)" filter="url(#blur)"/>

  <!-- App label -->
  <rect x="100" y="60" width="190" height="36" rx="18" fill="#2563eb" fill-opacity="0.7"/>
  <text x="195" y="83" font-family="sans-serif" font-size="13" fill="#eeefff" text-anchor="middle" font-weight="600">Lead Collection App</text>

  <!-- Lead list rows -->
  <rect x="100" y="120" width="600" height="56" rx="8" fill="#212b39"/>
  <circle cx="136" cy="148" r="16" fill="#2563eb" fill-opacity="0.6"/>
  <text x="136" y="153" font-family="sans-serif" font-size="12" fill="#b4c5ff" text-anchor="middle" font-weight="700">SC</text>
  <text x="165" y="143" font-family="sans-serif" font-size="13" fill="#d9e3f6" font-weight="600">Sarah Chen</text>
  <text x="165" y="160" font-family="sans-serif" font-size="11" fill="#8d90a0">Product Lead · Fintech Corp</text>
  <rect x="620" y="135" width="60" height="22" rx="11" fill="#5c3187"/>
  <text x="650" y="150" font-family="sans-serif" font-size="10" fill="#d0a1ff" text-anchor="middle">Qualified</text>

  <rect x="100" y="188" width="600" height="56" rx="8" fill="#16202e"/>
  <circle cx="136" cy="216" r="16" fill="#4c65cf" fill-opacity="0.6"/>
  <text x="136" y="221" font-family="sans-serif" font-size="12" fill="#b9c3ff" text-anchor="middle" font-weight="700">MK</text>
  <text x="165" y="211" font-family="sans-serif" font-size="13" fill="#d9e3f6" font-weight="600">Marcus Knight</text>
  <text x="165" y="228" font-family="sans-serif" font-size="11" fill="#8d90a0">CTO · Shopkick</text>
  <rect x="620" y="203" width="60" height="22" rx="11" fill="#2563eb" fill-opacity="0.5"/>
  <text x="650" y="218" font-family="sans-serif" font-size="10" fill="#eeefff" text-anchor="middle">New</text>

  <rect x="100" y="256" width="600" height="56" rx="8" fill="#212b39"/>
  <circle cx="136" cy="284" r="16" fill="#5c3187" fill-opacity="0.6"/>
  <text x="136" y="289" font-family="sans-serif" font-size="12" fill="#dcb8ff" text-anchor="middle" font-weight="700">AP</text>
  <text x="165" y="279" font-family="sans-serif" font-size="13" fill="#d9e3f6" font-weight="600">Anjali Patel</text>
  <text x="165" y="296" font-family="sans-serif" font-size="11" fill="#8d90a0">Founder · PokerTrax</text>
  <rect x="620" y="271" width="60" height="22" rx="11" fill="#5c3187"/>
  <text x="650" y="286" font-family="sans-serif" font-size="10" fill="#d0a1ff" text-anchor="middle">Qualified</text>

  <rect x="100" y="324" width="600" height="56" rx="8" fill="#16202e"/>
  <circle cx="136" cy="352" r="16" fill="#2563eb" fill-opacity="0.4"/>
  <text x="136" y="357" font-family="sans-serif" font-size="12" fill="#b4c5ff" text-anchor="middle" font-weight="700">JD</text>
  <text x="165" y="347" font-family="sans-serif" font-size="13" fill="#d9e3f6" font-weight="600">James Donovan</text>
  <text x="165" y="364" font-family="sans-serif" font-size="11" fill="#8d90a0">VP Sales · TechVenture</text>
  <rect x="620" y="339" width="60" height="22" rx="11" fill="#434655" fill-opacity="0.6"/>
  <text x="650" y="354" font-family="sans-serif" font-size="10" fill="#c3c6d7" text-anchor="middle">Review</text>

  <!-- Footer bar -->
  <rect x="100" y="410" width="600" height="50" rx="8" fill="#212b39"/>
  <text x="200" y="440" font-family="sans-serif" font-size="12" fill="#8d90a0">● Offline Mode Active</text>
  <rect x="550" y="422" width="130" height="28" rx="14" fill="#2563eb"/>
  <text x="615" y="440" font-family="sans-serif" font-size="12" fill="#ffffff" text-anchor="middle" font-weight="600">Sync 4 Leads</text>
</svg>
